<svg width="872" height="115" viewBox="0 0 872 115" fill="none" xmlns="http://www.w3.org/2000/svg">
<g clip-path="url(#clip0_245_27)">
<path d="M0.675 22.05C0.425 20.85 0.25 19.675 0.15 18.525C0.05 17.375 0 16.3 0 15.3C0 14.3 0.05 13.225 0.15 12.075C0.25 10.925 0.425 9.74999 0.675 8.54999H69.6C69.9 9.44999 70.125 10.475 70.275 11.625C70.425 12.725 70.5 13.8 70.5 14.85C70.5 17.45 69.775 19.3 68.325 20.4C66.875 21.5 64.625 22.05 61.575 22.05H51.75C50.75 22.05 49.325 22.025 47.475 21.975C45.625 21.925 44.175 21.9 43.125 21.9H27.15C26.15 21.9 24.7 21.925 22.8 21.975C20.95 22.025 19.525 22.05 18.525 22.05H0.675ZM27.15 33C27.15 30.95 27.15 29.125 27.15 27.525C27.15 25.875 27.15 24 27.15 21.9V15.3H43.05V21.9C43.05 24 43.05 25.875 43.05 27.525C43.1 29.125 43.125 30.95 43.125 33V111C41.875 111.2 40.525 111.35 39.075 111.45C37.675 111.55 36.375 111.6 35.175 111.6C33.925 111.6 32.575 111.55 31.125 111.45C29.725 111.35 28.4 111.2 27.15 111V33Z" fill="white"/>
<path d="M67.417 90.9C67.417 85.15 68.667 80.45 71.167 76.8C73.717 73.1 77.142 70.375 81.442 68.625C85.792 66.875 90.692 66 96.142 66C98.892 66 102.042 66.125 105.592 66.375C109.142 66.625 112.442 67.1 115.492 67.8V78.225C112.792 77.575 109.767 77.175 106.417 77.025C103.117 76.825 100.017 76.725 97.117 76.725C92.567 76.725 89.042 77.9 86.542 80.25C84.042 82.55 82.792 85.725 82.792 89.775C82.792 92.825 83.667 95.425 85.417 97.575C87.167 99.675 89.667 100.725 92.917 100.725C96.567 100.725 100.417 99.45 104.467 96.9C108.517 94.35 111.942 90.6 114.742 85.65L117.142 97.5C115.342 99.6 113.117 101.85 110.467 104.25C107.817 106.65 104.742 108.7 101.242 110.4C97.792 112.1 93.867 112.95 89.467 112.95C84.517 112.95 80.392 111.85 77.092 109.65C73.842 107.45 71.417 104.675 69.817 101.325C68.217 97.925 67.417 94.45 67.417 90.9ZM129.967 104.1C129.617 105.5 128.867 107 127.717 108.6C126.617 110.15 125.442 111.325 124.192 112.125C121.042 111.475 118.492 110.3 116.542 108.6C114.592 106.9 113.142 104.875 112.192 102.525C111.242 100.125 110.667 97.6 110.467 94.95V61.125C110.467 56.425 109.392 53.05 107.242 51C105.142 48.9 102.142 47.85 98.242 47.85C94.492 47.85 90.617 48.425 86.617 49.575C82.617 50.725 78.617 52.075 74.617 53.625C73.417 52.375 72.392 50.675 71.542 48.525C70.742 46.325 70.292 44.225 70.192 42.225C72.992 41.025 76.142 39.9 79.642 38.85C83.192 37.8 86.842 36.975 90.592 36.375C94.342 35.725 97.917 35.4 101.317 35.4C106.267 35.4 110.567 36.3 114.217 38.1C117.867 39.9 120.692 42.65 122.692 46.35C124.742 50.05 125.767 54.775 125.767 60.525V91.275C125.767 94.075 126.042 96.55 126.592 98.7C127.142 100.8 128.267 102.6 129.967 104.1Z" fill="white"/>
<path d="M163.842 111C162.792 111.2 161.592 111.35 160.242 111.45C158.942 111.55 157.567 111.6 156.117 111.6C153.317 111.6 150.817 111.4 148.617 111V1.64999L149.592 0.674988H155.442C158.692 0.674988 160.892 1.47499 162.042 3.07499C163.242 4.62499 163.842 7.12499 163.842 10.575V111ZM202.467 95.475C203.667 98.525 204.817 101 205.917 102.9C207.017 104.8 208.267 106.25 209.667 107.25C208.567 108.55 207.067 109.675 205.167 110.625C203.267 111.525 201.292 111.975 199.242 111.975C196.492 111.975 194.467 111.25 193.167 109.8C191.867 108.35 190.642 106.175 189.492 103.275L183.417 88.575C181.867 84.675 180.217 82.075 178.467 80.775C176.717 79.425 174.117 78.75 170.667 78.75C169.217 78.75 167.742 78.8 166.242 78.9C164.742 79 163.117 79.15 161.367 79.35L155.967 79.875V68.625H175.992C181.442 68.625 185.817 69.75 189.117 72C192.467 74.25 195.217 77.95 197.367 83.1L202.467 95.475ZM188.517 63.825C186.467 67.225 183.942 69.675 180.942 71.175C177.942 72.675 174.292 73.425 169.992 73.425H157.542V66.375L168.867 65.925C169.717 65.925 170.392 65.75 170.892 65.4C171.442 65.05 171.967 64.5 172.467 63.75L185.592 42.975C186.842 40.875 188.192 39.275 189.642 38.175C191.142 37.025 193.192 36.45 195.792 36.45C197.342 36.45 198.742 36.475 199.992 36.525C201.242 36.525 202.567 36.575 203.967 36.675L204.867 37.875L188.517 63.825Z" fill="white"/>
<path d="M218.735 90.9C218.735 85.15 219.985 80.45 222.485 76.8C225.035 73.1 228.46 70.375 232.76 68.625C237.11 66.875 242.01 66 247.46 66C250.21 66 253.36 66.125 256.91 66.375C260.46 66.625 263.76 67.1 266.81 67.8V78.225C264.11 77.575 261.085 77.175 257.735 77.025C254.435 76.825 251.335 76.725 248.435 76.725C243.885 76.725 240.36 77.9 237.86 80.25C235.36 82.55 234.11 85.725 234.11 89.775C234.11 92.825 234.985 95.425 236.735 97.575C238.485 99.675 240.985 100.725 244.235 100.725C247.885 100.725 251.735 99.45 255.785 96.9C259.835 94.35 263.26 90.6 266.06 85.65L268.46 97.5C266.66 99.6 264.435 101.85 261.785 104.25C259.135 106.65 256.06 108.7 252.56 110.4C249.11 112.1 245.185 112.95 240.785 112.95C235.835 112.95 231.71 111.85 228.41 109.65C225.16 107.45 222.735 104.675 221.135 101.325C219.535 97.925 218.735 94.45 218.735 90.9ZM281.285 104.1C280.935 105.5 280.185 107 279.035 108.6C277.935 110.15 276.76 111.325 275.51 112.125C272.36 111.475 269.81 110.3 267.86 108.6C265.91 106.9 264.46 104.875 263.51 102.525C262.56 100.125 261.985 97.6 261.785 94.95V61.125C261.785 56.425 260.71 53.05 258.56 51C256.46 48.9 253.46 47.85 249.56 47.85C245.81 47.85 241.935 48.425 237.935 49.575C233.935 50.725 229.935 52.075 225.935 53.625C224.735 52.375 223.71 50.675 222.86 48.525C222.06 46.325 221.61 44.225 221.51 42.225C224.31 41.025 227.46 39.9 230.96 38.85C234.51 37.8 238.16 36.975 241.91 36.375C245.66 35.725 249.235 35.4 252.635 35.4C257.585 35.4 261.885 36.3 265.535 38.1C269.185 39.9 272.01 42.65 274.01 46.35C276.06 50.05 277.085 54.775 277.085 60.525V91.275C277.085 94.075 277.36 96.55 277.91 98.7C278.46 100.8 279.585 102.6 281.285 104.1Z" fill="white"/>
<path d="M292.886 105.45C292.986 103.75 293.536 101.85 294.536 99.75C295.536 97.6 296.686 95.9 297.986 94.65C301.136 96.35 304.511 97.9 308.111 99.3C311.711 100.65 315.361 101.325 319.061 101.325C323.161 101.325 326.411 100.45 328.811 98.7C331.211 96.95 332.436 94.7 332.486 91.95C332.486 89.85 331.686 87.9 330.086 86.1C328.486 84.3 326.136 82.85 323.036 81.75L314.336 78.525C310.886 77.275 307.711 75.7 304.811 73.8C301.961 71.9 299.661 69.6 297.911 66.9C296.161 64.15 295.286 60.9 295.286 57.15C295.286 52.55 296.436 48.6 298.736 45.3C301.086 42 304.261 39.475 308.261 37.725C312.311 35.925 316.836 35.025 321.836 35.025C325.886 35.025 330.186 35.55 334.736 36.6C339.336 37.65 343.186 38.925 346.286 40.425C346.336 41.675 346.186 43.05 345.836 44.55C345.486 46 344.936 47.375 344.186 48.675C343.486 49.925 342.686 50.975 341.786 51.825C339.136 50.575 336.061 49.45 332.561 48.45C329.061 47.4 325.436 46.875 321.686 46.875C318.436 46.875 315.836 47.675 313.886 49.275C311.936 50.825 310.961 52.925 310.961 55.575C310.961 57.675 311.711 59.425 313.211 60.825C314.761 62.225 317.086 63.5 320.186 64.65L329.411 68.025C335.061 70.075 339.636 72.9 343.136 76.5C346.686 80.1 348.461 84.8 348.461 90.6C348.461 97.55 345.761 103.025 340.361 107.025C334.961 110.975 327.861 112.95 319.061 112.95C313.811 112.95 308.936 112.2 304.436 110.7C299.986 109.2 296.136 107.45 292.886 105.45Z" fill="white"/>
<path d="M360.386 90.9C360.386 85.15 361.636 80.45 364.136 76.8C366.686 73.1 370.111 70.375 374.411 68.625C378.761 66.875 383.661 66 389.111 66C391.861 66 395.011 66.125 398.561 66.375C402.111 66.625 405.411 67.1 408.461 67.8V78.225C405.761 77.575 402.736 77.175 399.386 77.025C396.086 76.825 392.986 76.725 390.086 76.725C385.536 76.725 382.011 77.9 379.511 80.25C377.011 82.55 375.761 85.725 375.761 89.775C375.761 92.825 376.636 95.425 378.386 97.575C380.136 99.675 382.636 100.725 385.886 100.725C389.536 100.725 393.386 99.45 397.436 96.9C401.486 94.35 404.911 90.6 407.711 85.65L410.111 97.5C408.311 99.6 406.086 101.85 403.436 104.25C400.786 106.65 397.711 108.7 394.211 110.4C390.761 112.1 386.836 112.95 382.436 112.95C377.486 112.95 373.361 111.85 370.061 109.65C366.811 107.45 364.386 104.675 362.786 101.325C361.186 97.925 360.386 94.45 360.386 90.9ZM422.936 104.1C422.586 105.5 421.836 107 420.686 108.6C419.586 110.15 418.411 111.325 417.161 112.125C414.011 111.475 411.461 110.3 409.511 108.6C407.561 106.9 406.111 104.875 405.161 102.525C404.211 100.125 403.636 97.6 403.436 94.95V61.125C403.436 56.425 402.361 53.05 400.211 51C398.111 48.9 395.111 47.85 391.211 47.85C387.461 47.85 383.586 48.425 379.586 49.575C375.586 50.725 371.586 52.075 367.586 53.625C366.386 52.375 365.361 50.675 364.511 48.525C363.711 46.325 363.261 44.225 363.161 42.225C365.961 41.025 369.111 39.9 372.611 38.85C376.161 37.8 379.811 36.975 383.561 36.375C387.311 35.725 390.886 35.4 394.286 35.4C399.236 35.4 403.536 36.3 407.186 38.1C410.836 39.9 413.661 42.65 415.661 46.35C417.711 50.05 418.736 54.775 418.736 60.525V91.275C418.736 94.075 419.011 96.55 419.561 98.7C420.111 100.8 421.236 102.6 422.936 104.1Z" fill="white"/>
<path d="M456.811 111C455.761 111.2 454.561 111.35 453.211 111.45C451.911 111.55 450.536 111.6 449.086 111.6C446.286 111.6 443.786 111.4 441.586 111V1.64999L442.561 0.674988H448.411C451.661 0.674988 453.861 1.47499 455.011 3.07499C456.211 4.62499 456.811 7.12499 456.811 10.575V111ZM495.436 95.475C496.636 98.525 497.786 101 498.886 102.9C499.986 104.8 501.236 106.25 502.636 107.25C501.536 108.55 500.036 109.675 498.136 110.625C496.236 111.525 494.261 111.975 492.211 111.975C489.461 111.975 487.436 111.25 486.136 109.8C484.836 108.35 483.611 106.175 482.461 103.275L476.386 88.575C474.836 84.675 473.186 82.075 471.436 80.775C469.686 79.425 467.086 78.75 463.636 78.75C462.186 78.75 460.711 78.8 459.211 78.9C457.711 79 456.086 79.15 454.336 79.35L448.936 79.875V68.625H468.961C474.411 68.625 478.786 69.75 482.086 72C485.436 74.25 488.186 77.95 490.336 83.1L495.436 95.475ZM481.486 63.825C479.436 67.225 476.911 69.675 473.911 71.175C470.911 72.675 467.261 73.425 462.961 73.425H450.511V66.375L461.836 65.925C462.686 65.925 463.361 65.75 463.861 65.4C464.411 65.05 464.936 64.5 465.436 63.75L478.561 42.975C479.811 40.875 481.161 39.275 482.611 38.175C484.111 37.025 486.161 36.45 488.761 36.45C490.311 36.45 491.711 36.475 492.961 36.525C494.211 36.525 495.536 36.575 496.936 36.675L497.836 37.875L481.486 63.825Z" fill="white"/>
<path d="M533.55 111C532.5 111.2 531.3 111.35 529.95 111.45C528.6 111.55 527.225 111.6 525.825 111.6C524.425 111.6 523.05 111.55 521.7 111.45C520.35 111.35 519.125 111.2 518.025 111V56.025C518.025 53.375 517.55 51.425 516.6 50.175C515.7 48.875 514 48.225 511.5 48.225H509.85C509.4 46.425 509.175 44.6 509.175 42.75C509.175 41.85 509.225 40.95 509.325 40.05C509.425 39.1 509.6 38.125 509.85 37.125C511.75 36.875 513.525 36.7 515.175 36.6C516.875 36.5 518.275 36.45 519.375 36.45H521.4C525.15 36.45 528.1 37.65 530.25 40.05C532.45 42.4 533.55 45.625 533.55 49.725V111ZM513.45 16.95C513.45 15.85 513.55 14.675 513.75 13.425C514 12.175 514.35 11.1 514.8 10.2C515.7 9.69999 516.925 9.27499 518.475 8.92499C520.075 8.57499 521.6 8.39999 523.05 8.39999C524.45 8.39999 525.975 8.57499 527.625 8.92499C529.275 9.27499 530.5 9.69999 531.3 10.2C531.75 11.1 532.075 12.2 532.275 13.5C532.525 14.75 532.65 15.9 532.65 16.95C532.65 18 532.525 19.15 532.275 20.4C532.075 21.65 531.75 22.725 531.3 23.625C530.6 24.125 529.4 24.575 527.7 24.975C526 25.325 524.45 25.5 523.05 25.5C521.6 25.5 520.075 25.325 518.475 24.975C516.875 24.625 515.65 24.175 514.8 23.625C514.35 22.725 514 21.65 513.75 20.4C513.55 19.15 513.45 18 513.45 16.95Z" fill="white"/>
<path d="M540.827 84.6553C540.827 94.4697 543.659 101.892 549.323 106.921C554.987 111.95 562.556 114.465 572.028 114.465C581.452 114.465 588.923 111.926 594.44 106.848C599.958 101.721 602.717 94.9824 602.717 86.6328C602.717 78.8203 600.422 72.5459 595.832 67.8096C591.242 63.0244 584.235 58.8008 574.812 55.1387C565.437 51.4766 559.089 48.0342 555.769 44.8115C552.448 41.54 550.788 37.0967 550.788 31.4814C550.788 25.4268 552.448 20.6904 555.769 17.2725C559.089 13.8057 564.411 12.0723 571.735 12.0723C578.571 12.0723 583.771 13.9766 587.336 17.7852C590.949 21.5938 592.756 26.8428 592.756 33.5322V37.1943H600.812V33.5322C600.812 24.3525 598.176 17.2969 592.902 12.3652C587.629 7.38477 580.573 4.89453 571.735 4.89453C562.556 4.89453 555.427 7.40918 550.349 12.4385C545.319 17.4678 542.805 23.8887 542.805 31.7012C542.805 40.4902 545.124 46.9355 549.763 51.0371C554.45 55.0898 561.433 58.9229 570.71 62.5361C580.134 66.1982 586.481 69.7139 589.753 73.083C593.024 76.4033 594.66 80.9932 594.66 86.8525C594.66 93.0537 592.707 98.0342 588.801 101.794C584.943 105.505 579.353 107.36 572.028 107.36C564.753 107.36 559.064 105.505 554.963 101.794C550.91 98.0342 548.884 92.3213 548.884 84.6553V79.5283H540.827V84.6553Z" fill="#745CFF"/>
<path d="M608.869 53.2344H645.197V46.0566H608.869V53.2344ZM620.808 94.543C620.808 102.16 622.199 107.385 624.982 110.217C627.766 113.049 631.599 114.465 636.481 114.465C638.093 114.465 639.558 114.343 640.876 114.099C642.243 113.854 643.366 113.562 644.245 113.22V105.969C643.269 106.457 642.243 106.799 641.169 106.994C640.095 107.189 638.996 107.287 637.873 107.287C634.699 107.287 632.355 106.53 630.842 105.017C629.377 103.454 628.645 99.9629 628.645 94.543V19.8359H620.808V94.543Z" fill="#745CFF"/>
<path d="M654.499 90.3682C654.499 99.0596 656.354 105.261 660.065 108.972C663.825 112.634 668.928 114.465 675.373 114.465C679.963 114.465 684.089 113.464 687.751 111.462C691.413 109.46 694.44 106.604 696.833 102.893L697.053 113H704.45V46.0566H696.54V94.1035C694.587 97.9609 692.023 101.135 688.85 103.625C685.676 106.066 681.989 107.287 677.79 107.287C672.858 107.287 669.05 106.091 666.364 103.698C663.679 101.257 662.336 96.8623 662.336 90.5146V46.0566H654.499V90.3682Z" fill="#745CFF"/>
<path d="M717.194 80.627C717.194 90.3926 719.587 98.4736 724.372 104.87C729.157 111.267 735.798 114.465 744.294 114.465C749.274 114.465 753.547 113.366 757.111 111.169C760.725 108.972 763.508 106.335 765.461 103.259H765.534L765.607 113H773.078V6.35938H765.241V53.6738C763.288 50.9395 760.554 48.7422 757.038 47.082C753.571 45.4219 749.323 44.5918 744.294 44.5918C736.042 44.5918 729.45 47.7656 724.519 54.1133C719.636 60.4609 717.194 68.5176 717.194 78.2832V80.627ZM725.251 80.627V78.2832C725.251 70.5195 726.911 64.1719 730.231 59.2402C733.552 54.3086 738.776 51.8428 745.905 51.8428C750.642 51.8428 754.694 52.9902 758.063 55.2852C761.433 57.5312 763.825 60.3145 765.241 63.6348V94.3965C763.776 97.7656 761.359 100.769 757.99 103.405C754.67 105.993 750.642 107.287 745.905 107.287C738.825 107.287 733.601 104.797 730.231 99.8164C726.911 94.8359 725.251 88.4395 725.251 80.627Z" fill="#745CFF"/>
<path d="M790.876 113H798.713V46.0566H790.876V113ZM789.338 20.5684C789.338 22.1309 789.802 23.4736 790.729 24.5967C791.657 25.6709 793 26.208 794.758 26.208C796.516 26.208 797.858 25.6709 798.786 24.5967C799.763 23.4736 800.251 22.1309 800.251 20.5684C800.251 18.957 799.787 17.6387 798.859 16.6133C797.932 15.5391 796.589 15.002 794.831 15.002C793.073 15.002 791.706 15.5391 790.729 16.6133C789.802 17.6875 789.338 19.0059 789.338 20.5684Z" fill="#745CFF"/>
<path d="M811.97 80.627C811.97 90.832 814.68 99.0352 820.1 105.236C825.52 111.389 832.771 114.465 841.853 114.465C850.935 114.465 858.186 111.389 863.605 105.236C869.025 99.0352 871.735 90.832 871.735 80.627V78.2832C871.735 68.1758 869.025 60.0459 863.605 53.8936C858.186 47.6924 850.935 44.5918 841.853 44.5918C832.819 44.5918 825.568 47.6924 820.1 53.8936C814.68 60.0459 811.97 68.1758 811.97 78.2832V80.627ZM820.026 78.3564C820.026 70.4951 821.882 64.123 825.593 59.2402C829.304 54.3086 834.699 51.8428 841.779 51.8428C848.957 51.8428 854.401 54.3086 858.112 59.2402C861.823 64.123 863.679 70.4951 863.679 78.3564V80.5537C863.679 88.415 861.823 94.8359 858.112 99.8164C854.401 104.797 848.957 107.287 841.779 107.287C834.699 107.287 829.304 104.797 825.593 99.8164C821.882 94.8359 820.026 88.4395 820.026 80.627V78.3564Z" fill="#745CFF"/>
</g>
<defs>
<clipPath id="clip0_245_27">
<rect width="872" height="115" fill="white"/>
</clipPath>
</defs>
</svg>
